<svg width="357" height="300" viewBox="0 0 357 300" fill="none" xmlns="http://www.w3.org/2000/svg">
<g clip-path="url(#clip0)">
<path d="M175.405 300C225.385 300 265.902 294.054 265.902 286.72C265.902 279.386 225.385 273.44 175.405 273.44C125.424 273.44 84.907 279.386 84.907 286.72C84.907 294.054 125.424 300 175.405 300Z" fill="#3F3D56"/>
<path d="M328.491 173.172L293.506 192.536L324.469 165.46C319.437 156.275 313.783 147.575 307.563 139.445L155.838 183.546L292.889 122.408C286.626 115.947 279.975 110.018 272.987 104.669L41.7929 148.217C17.2459 184.114 3.86466 228.703 3.84576 274.666H351.855C351.841 239.02 343.782 204.009 328.491 173.172Z" fill="#F2F2F2"/>
<path d="M254.065 92.0973C230.329 78.5586 204.26 71.5432 177.851 71.5869C124.101 71.5869 76.0455 100.089 44.1271 144.871C98.7843 130.866 193.947 106.622 254.065 92.0973Z" fill="#F2F2F2"/>
<path opacity="0.4" d="M288.293 111.665C291.172 111.665 293.506 108.936 293.506 105.569C293.506 102.202 291.172 99.472 288.293 99.472C285.413 99.472 283.079 102.202 283.079 105.569C283.079 108.936 285.413 111.665 288.293 111.665Z" fill="#6C63FF"/>
<path opacity="0.4" d="M278.644 112.757C280.664 112.757 282.301 110.842 282.301 108.48C282.301 106.118 280.664 104.204 278.644 104.204C276.624 104.204 274.987 106.118 274.987 108.48C274.987 110.842 276.624 112.757 278.644 112.757Z" fill="#6C63FF"/>
<path opacity="0.4" d="M41.4933 134.492C47.5234 134.492 52.4117 128.776 52.4117 121.724C52.4117 114.672 47.5234 108.956 41.4933 108.956C35.4633 108.956 30.575 114.672 30.575 121.724C30.575 128.776 35.4633 134.492 41.4933 134.492Z" fill="#6C63FF"/>
<path opacity="0.4" d="M21.2862 136.779C25.5163 136.779 28.9454 132.769 28.9454 127.822C28.9454 122.876 25.5163 118.866 21.2862 118.866C17.0562 118.866 13.6271 122.876 13.6271 127.822C13.6271 132.769 17.0562 136.779 21.2862 136.779Z" fill="#6C63FF"/>
<path d="M356.4 274.258H0V275.075H356.4V274.258Z" fill="#2F2E41"/>
<path d="M316.022 274.258L288.265 226.042C288.265 226.042 330.301 243.203 325.531 274.258H316.022Z" fill="#3F3D56"/>
<path d="M328.112 274.258L355.869 226.042C355.869 226.042 313.833 243.203 318.603 274.258H328.112Z" fill="#6C63FF"/>
<path d="M72.6777 54.2515C72.6777 51.5968 69.4408 49.4448 65.4479 49.4448C65.3689 49.4448 65.2907 49.4471 65.2122 49.4488C64.0077 45.1308 58.3138 41.8609 51.4703 41.8609C45.6477 41.8609 40.6574 44.2281 38.556 47.5937C37.0034 47.1132 35.4035 46.8737 33.7975 46.8812C27.675 46.8812 22.7118 50.181 22.7118 54.2515C22.7118 57.9491 26.8075 61.0102 32.1471 61.5401C36.0272 62.3697 42.088 62.9036 48.8997 62.9036C60.4641 62.9036 68.9258 60.3239 69.1381 58.3848C71.2571 57.5467 72.6777 56.0097 72.6777 54.2515Z" fill="#F2F2F2"/>
<path d="M247.383 56.2946C247.383 53.6399 244.147 51.4879 240.154 51.4879C240.075 51.4879 239.996 51.4901 239.918 51.4918C238.714 47.1739 233.02 43.9039 226.176 43.9039C220.354 43.9039 215.363 46.2712 213.262 49.6368C211.709 49.1563 210.109 48.9167 208.503 48.9243C202.381 48.9243 197.418 52.2241 197.418 56.2946C197.418 59.9922 201.513 63.0532 206.853 63.5832C210.733 64.4128 216.794 64.9467 223.606 64.9467C235.17 64.9467 243.632 62.367 243.844 60.4279C245.963 59.5898 247.383 58.0528 247.383 56.2946Z" fill="#F2F2F2"/>
<path d="M344.869 21.7487C344.869 17.089 339.188 13.3117 332.179 13.3117C332.041 13.3117 331.903 13.3157 331.766 13.3186C329.652 5.73961 319.657 0 307.645 0C297.425 0 288.666 4.15507 284.978 10.0626C282.252 9.21916 279.444 8.79868 276.625 8.81195C265.879 8.81195 257.167 14.6039 257.167 21.7486C257.167 28.2388 264.356 33.6117 273.728 34.5419C280.539 35.9981 291.177 36.9352 303.133 36.9352C323.432 36.9352 338.284 32.4072 338.656 29.0036C342.376 27.5326 344.869 24.8348 344.869 21.7487Z" fill="#F2F2F2"/>
<path d="M199.224 118.459C191.997 104.178 177.698 103.512 177.698 103.512C177.698 103.512 163.764 101.429 154.826 123.179C146.495 143.452 134.997 163.026 152.975 167.772L156.222 155.952L158.233 168.652C160.793 168.867 163.361 168.919 165.926 168.806C185.179 168.079 203.514 169.018 202.924 160.939C202.139 150.199 206.178 132.2 199.224 118.459Z" fill="#2F2E41"/>
<path d="M151.948 243.526C151.736 245.097 151.428 246.648 151.026 248.167C150.574 249.654 149.876 251.03 149.462 252.532C148.144 257.322 149.972 262.662 152.89 266.359C155.421 269.552 158.688 271.82 162.297 272.891C164.93 273.665 167.667 273.777 170.38 273.884C177.894 274.182 185.6 274.449 192.72 271.625C194.969 270.711 197.141 269.557 199.21 268.177C199.863 267.813 200.438 267.283 200.894 266.626C201.437 265.722 201.506 264.55 201.502 263.445C201.486 259.72 200.84 256.015 200.993 252.294C201.078 250.234 201.408 248.174 201.246 246.12C201.021 243.787 200.185 241.592 198.853 239.835C197.52 238.079 195.756 236.847 193.802 236.308C191.782 235.801 189.687 236.078 187.631 236.309C182.294 236.909 176.934 237.189 171.573 237.148C166.094 237.108 160.65 236.13 155.199 236.028C153.587 235.997 153.619 236.578 153.106 238.403C152.633 240.082 152.247 241.793 151.948 243.526Z" fill="#2F2E41"/>
<path d="M167.495 151.554C167.232 153.166 166.947 154.837 166.119 156.161C165.166 157.686 163.612 158.556 162.587 160.015C161.043 162.211 160.955 165.3 160.949 168.142C160.943 170.76 160.988 173.553 162.237 175.726C163.047 177.137 164.28 178.126 165.485 179.075C170.167 182.765 175.227 186.521 180.872 186.643C183.211 186.694 185.719 185.987 187.258 183.927C187.922 182.959 188.445 181.869 188.804 180.701C190.248 176.54 191.123 172.139 191.397 167.66C191.526 165.553 191.513 163.384 190.904 161.396C190.218 159.16 188.831 157.32 187.915 155.2C186.831 152.679 186.435 149.83 186.779 147.038C186.825 146.841 186.811 146.632 186.739 146.446C186.664 146.347 186.57 146.269 186.465 146.219C186.359 146.169 186.246 146.149 186.132 146.159L174.939 145.216C173.896 145.156 172.858 145.017 171.831 144.8C171.227 144.657 169.634 143.655 169.058 143.921C167.993 144.415 167.714 150.217 167.495 151.554Z" fill="#FFB8B8"/>
<path opacity="0.1" d="M167.495 151.554C167.232 153.166 166.947 154.837 166.119 156.161C165.166 157.686 163.612 158.556 162.587 160.015C161.043 162.211 160.955 165.3 160.949 168.142C160.943 170.76 160.988 173.553 162.237 175.726C163.047 177.137 164.28 178.126 165.485 179.075C170.167 182.765 175.227 186.521 180.872 186.643C183.211 186.694 185.719 185.987 187.258 183.927C187.922 182.959 188.445 181.869 188.804 180.701C190.248 176.54 191.123 172.139 191.397 167.66C191.526 165.553 191.513 163.384 190.904 161.396C190.218 159.16 188.831 157.32 187.915 155.2C186.831 152.679 186.435 149.83 186.779 147.038C186.825 146.841 186.811 146.632 186.739 146.446C186.664 146.347 186.57 146.269 186.465 146.219C186.359 146.169 186.246 146.149 186.132 146.159L174.939 145.216C173.896 145.156 172.858 145.017 171.831 144.8C171.227 144.657 169.634 143.655 169.058 143.921C167.993 144.415 167.714 150.217 167.495 151.554Z" fill="black"/>
<path d="M178.2 153.309C187.27 153.309 194.622 144.711 194.622 134.104C194.622 123.498 187.27 114.9 178.2 114.9C169.13 114.9 161.778 123.498 161.778 134.104C161.778 144.711 169.13 153.309 178.2 153.309Z" fill="#FFB8B8"/>
<path d="M169.799 177.118C170.655 178.164 171.562 179.2 172.683 179.814C173.825 180.365 175.051 180.638 176.287 180.616C179.247 180.713 182.456 180.079 184.515 177.59C187.17 174.382 187.083 169.207 189.163 165.465C189.331 165.125 189.56 164.833 189.834 164.607C190.183 164.385 190.577 164.279 190.974 164.3C193.602 164.272 195.891 166.265 197.957 168.164C198.883 169.015 199.831 169.897 200.415 171.092C200.824 172.024 201.103 173.026 201.244 174.061C202.269 179.913 202.601 185.897 202.931 191.859C203.113 195.152 203.295 198.448 203.281 201.748C203.237 212.619 201.076 223.308 198.927 233.885C198.65 235.248 198.272 236.771 197.212 237.424C196.739 237.673 196.232 237.817 195.715 237.851C189.56 238.697 183.393 239.543 177.197 239.655C174.779 239.698 172.363 239.63 169.947 239.449C169.531 239.443 169.119 239.359 168.725 239.2C168.192 238.901 167.733 238.445 167.394 237.878C164.042 232.939 163.845 226.111 163.866 219.806C163.918 204.391 164.389 188.989 165.279 173.599C165.352 172.328 165.368 170.786 164.586 169.786C165.995 172.425 167.955 174.865 169.799 177.118Z" fill="#D0CDE1"/>
<path d="M166.32 154.943C165.765 156.118 161.676 159.033 160.887 160.006C156.476 165.443 148.425 165.239 144.391 171.063C142.972 173.112 142.234 175.686 141.692 178.246C140.925 181.865 140.515 185.813 141.8 189.226C143.037 192.511 145.64 194.781 147.407 197.715C149.347 200.936 150.219 204.847 151.055 208.664C151.673 211.482 152.295 214.37 152.055 217.266C151.781 220.558 150.419 223.573 149.615 226.744C148.81 229.915 148.671 233.692 150.531 236.184C151.898 238.015 154.041 238.741 156.089 239.149C158.713 239.61 161.359 239.879 164.011 239.955C166.353 240.076 168.934 240.1 170.734 238.344C172.154 236.959 172.772 234.711 172.852 232.551C172.931 230.39 172.547 228.248 172.306 226.104C172.057 223.881 171.961 221.638 171.88 219.398C171.52 209.347 171.471 199.289 171.733 189.225C171.788 187.131 171.854 185.011 171.472 182.964C170.97 180.272 169.725 177.866 168.687 175.392C166.627 170.482 165.652 165.712 165.971 160.255C166.285 154.869 168.294 150.765 166.32 154.943Z" fill="#6C63FF"/>
<path d="M189.381 155.352C190.226 156.367 193.097 156.702 194.171 157.356C195.182 157.902 196.237 158.329 197.32 158.631C201.241 159.954 204.969 161.955 208.383 164.569C209.092 165.054 209.719 165.687 210.233 166.437C210.834 167.415 211.052 168.636 211.256 169.816C211.782 172.865 212.311 175.95 212.193 179.057C212.067 182.354 211.218 185.548 210.375 188.699L207.226 200.47C204.876 209.257 202.511 218.13 201.85 227.304C201.484 232.389 201.647 237.507 202.334 242.545C202.403 243.052 202.461 243.633 202.175 244.021C201.968 244.261 201.695 244.408 201.404 244.436C199.885 244.714 198.414 243.808 197.037 243.006C192.829 240.557 188.338 238.839 183.705 237.905C185.515 234.846 186.912 231.479 187.846 227.923C188.376 225.665 188.794 223.372 189.097 221.057L190.562 211.151C191.158 207.53 191.577 203.872 191.818 200.195C191.929 198.816 191.86 197.424 191.614 196.068C191.277 194.778 190.829 193.531 190.277 192.347C187.863 186.475 186.73 179.774 187.68 173.354C188.096 170.544 188.903 167.731 188.566 164.907C188.243 162.192 188.579 160.082 187.984 157.395C185.538 146.363 187.792 153.442 189.381 155.352Z" fill="#6C63FF"/>
<path d="M144.349 180.347C143.249 183.017 141.409 185.292 140.783 188.165C140.539 189.508 140.435 190.88 140.472 192.251C140.457 194.319 140.447 196.428 140.99 198.396C141.34 199.662 141.908 200.831 142.318 202.073C142.889 203.808 143.143 205.663 143.065 207.52C142.954 210.092 142.207 212.589 142.149 215.164C142.057 219.213 143.658 223.02 145.221 226.635C145.614 225.496 146.216 224.471 146.983 223.632C147.75 222.793 148.665 222.16 149.663 221.778C150.662 221.396 151.719 221.273 152.762 221.419C153.805 221.565 154.809 221.975 155.702 222.622C156.114 222.177 156.158 221.446 156.174 220.79C156.29 216.092 156.401 211.395 156.508 206.697C156.677 199.431 156.839 192.069 155.409 184.995C154.764 181.802 153.76 178.621 151.919 176.144C150.95 174.839 147.66 171.404 146.069 172.865C145.354 173.522 145.521 175.311 145.408 176.216C145.236 177.648 144.88 179.041 144.349 180.347Z" fill="#6C63FF"/>
<path d="M212.514 172.651C213.035 174.546 213.066 176.572 213.076 178.562C213.098 182.623 213.052 186.683 212.938 190.743C212.88 192.822 212.801 194.929 212.262 196.91C211.906 198.217 211.358 199.443 210.991 200.745C209.891 204.649 210.492 208.882 210.586 212.991C210.653 214.32 210.556 215.655 210.298 216.952C209.718 219.499 208.158 221.557 207.069 223.865C206.035 226.057 205.411 228.514 204.176 230.558C202.941 232.603 200.803 234.223 198.731 233.595C197.16 233.12 196.045 231.495 195.273 229.826C193.589 226.158 193.013 221.933 193.639 217.834C194.413 212.848 196.918 208.424 197.821 203.467C199.062 196.66 197.176 189.636 197.233 182.677C197.207 181.586 197.334 180.498 197.607 179.454C198.081 177.865 199.099 176.595 200.039 175.32C201.213 173.727 202.305 172.052 203.307 170.305C203.98 169.131 204.894 166.112 206.087 165.861C208.751 165.301 211.854 170.244 212.514 172.651Z" fill="#6C63FF"/>
<path d="M130.526 240.499C129.053 240.066 127.535 239.877 126.017 239.938C124.422 240.041 122.864 240.54 121.447 241.402C120.03 242.264 118.786 243.468 117.797 244.936C116.809 246.404 116.099 248.1 115.715 249.914C115.331 251.727 115.281 253.615 115.569 255.452C115.937 257.443 116.538 259.364 117.356 261.162C118.552 264 119.986 266.831 122.2 268.65C123.495 269.714 124.994 270.377 126.474 271.03L138.134 276.166C139.849 276.922 141.565 277.677 143.297 278.378C151.999 281.896 161.072 284.005 170.263 284.647C173.063 284.842 175.905 284.897 178.636 284.151C179.284 283.974 179.976 283.711 180.351 283.068C180.573 282.615 180.704 282.109 180.734 281.588L181.452 275.714C181.553 274.887 181.65 274.017 181.391 273.238C181.062 272.251 180.238 271.63 179.453 271.103C171.787 265.954 162.837 263.114 156.385 256.048C154.867 254.384 153.595 251.747 151.75 250.617C149.657 249.336 147.193 248.605 145.03 247.424C140.301 244.843 135.652 241.876 130.526 240.499Z" fill="#2F2E41"/>
<path opacity="0.1" d="M142.167 248.417C146.288 249.927 163.687 260.389 166.669 264.042C166.27 264.211 152.706 255.322 152.3 255.179C148.6 253.881 144.88 252.574 141.367 250.674C140.66 250.292 136.776 248.495 136.951 247.452C137.15 246.275 141.435 248.149 142.167 248.417Z" fill="black"/>
<path d="M193.58 287.693C193.814 287.714 194.046 287.634 194.233 287.469C194.315 287.345 194.376 287.204 194.411 287.053C194.446 286.902 194.455 286.745 194.438 286.59C194.431 283.922 194.425 281.255 194.418 278.588C192.451 277.491 190.25 277.14 188.089 276.802L178.009 275.227C178.241 275.263 176.433 280.304 176.71 280.977C177.199 282.163 180.932 283.214 181.986 283.774C185.649 285.721 189.455 287.861 193.58 287.693Z" fill="#FFB8B8"/>
<path d="M161.954 278.56C160.051 278.914 157.927 279.228 156.694 280.96C155.131 283.157 155.796 286.433 156.542 289.154C156.653 289.705 156.875 290.216 157.19 290.645C157.699 291.232 158.479 291.318 159.192 291.371C160.928 291.5 162.775 291.6 164.292 290.605C164.979 290.074 165.64 289.499 166.273 288.883C167.391 288.013 168.62 287.356 169.915 286.936C172.294 286.06 174.744 285.47 177.225 285.174C178.203 285.122 179.171 284.922 180.105 284.58C181.021 284.177 181.868 283.378 182.134 282.277C182.485 280.823 181.762 279.341 181.069 278.065C180.206 276.477 179.291 274.804 178.003 273.634C176.125 271.928 175.196 273.238 173.304 274.33C169.723 276.397 165.897 277.822 161.954 278.56Z" fill="#FFB8B8"/>
<path d="M156.98 280.565L144.896 276.388C143.426 275.88 141.931 275.367 140.399 275.369C138.866 275.37 137.263 275.958 136.269 277.322C135.332 278.608 135.063 280.366 134.83 282.033L134.33 285.6C134.076 287.413 133.822 289.26 134.05 291.078C134.279 292.895 135.072 294.71 136.451 295.59C138.123 296.657 140.173 296.136 142.039 295.69C145.809 294.789 149.644 294.308 153.491 294.254C154.938 294.233 156.455 294.255 157.733 293.462C159.252 292.521 160.161 290.53 160.318 288.527C160.555 285.48 159.687 281.5 156.98 280.565Z" fill="#2F2E41"/>
<path d="M198.33 276.925C199.897 276.604 201.28 275.562 202.781 274.948C204.894 274.083 207.183 274.083 209.422 274.092C210.244 274.096 211.119 274.117 211.803 274.65C212.789 275.418 213.042 276.954 213.21 278.325L214.221 286.6C214.411 288.156 214.601 289.754 214.304 291.287C214.007 292.821 213.113 294.299 211.812 294.694C210.232 295.175 208.683 293.994 207.191 293.219C203.462 291.281 199.127 291.776 195.238 290.327C194.517 290.058 193.744 289.647 193.449 288.831C193.316 288.372 193.269 287.884 193.31 287.402C193.377 284.742 192.897 281.11 193.582 278.568C194.198 276.283 196.582 276.925 198.33 276.925Z" fill="#2F2E41"/>
<path d="M223.904 237.168C226.319 236.46 228.822 236.26 231.297 236.578C233.273 236.832 235.309 237.475 236.752 239.075C238.508 241.022 239.073 244.033 239.12 246.863C239.197 252.498 237.599 257.99 234.598 262.401C233.865 263.516 232.993 264.497 232.012 265.311C230.954 266.085 229.826 266.721 228.649 267.207L202.538 279.251C195.669 282.419 188.775 285.597 181.61 287.685C181.414 287.796 181.202 287.86 180.984 287.873C180.767 287.886 180.55 287.848 180.345 287.761C180.141 287.674 179.953 287.541 179.794 287.368C179.634 287.195 179.505 286.987 179.416 286.755C177.128 282.933 175.209 278.828 173.693 274.513C173.621 274.41 173.572 274.289 173.548 274.159C173.525 274.03 173.529 273.895 173.56 273.768C173.59 273.64 173.647 273.523 173.724 273.426C173.801 273.33 173.898 273.256 174.005 273.212L192.473 260.803C193.796 259.914 195.134 259.013 196.232 257.774C197.03 256.87 197.684 255.806 198.162 254.632C198.545 253.697 198.58 251.491 199.069 250.8C199.548 250.123 201.186 250.069 201.942 249.803C203.009 249.421 204.054 248.959 205.07 248.42C209.201 246.259 212.88 243.119 216.84 240.588C219.062 239.103 221.435 237.954 223.904 237.168Z" fill="#2F2E41"/>
<path opacity="0.1" d="M213.434 246.435C210.261 249.222 206.153 251.784 203.008 254.644C201.935 255.62 184.044 267.383 183.791 268.946C186.724 269.524 205.413 254.234 208.087 252.709C210.761 251.183 213.131 249.032 215.48 246.896C216.079 246.352 218.615 244.716 216.897 244.108C215.929 243.765 214.149 245.878 213.434 246.435Z" fill="black"/>
<path d="M196.029 117.082L181.902 108.429L162.394 111.969L158.358 132.816L168.405 132.364L171.212 124.705V132.238L175.848 132.029L178.539 119.836L180.22 132.816L196.701 132.422L196.029 117.082Z" fill="#2F2E41"/>
<path d="M192.875 159.847H162.476V202.751H192.875V159.847Z" fill="#3F3D56"/>
<path d="M148.045 234.468C148.743 235.687 149.561 236.879 150.682 237.536C151.397 237.918 152.177 238.103 152.963 238.079C153.748 238.054 154.519 237.82 155.215 237.394C156.606 236.522 157.744 235.187 158.486 233.558C160.022 230.388 160.339 226.594 160.148 222.958C159.956 219.321 159.292 215.74 158.998 212.113C158.785 209.476 158.767 206.824 158.75 204.175C158.697 203.618 158.797 203.056 159.036 202.57C159.376 202.027 159.998 201.877 160.55 201.686C163.648 200.609 165.705 197.213 167.18 193.849C168.164 191.603 169.02 189.147 168.831 186.633C168.641 184.119 167.095 181.586 164.948 181.329C163.178 181.118 161.543 182.433 160.266 183.882C157.045 187.561 154.975 192.399 154.388 197.62C154.108 200.176 154.188 202.802 153.594 205.284C152.324 210.583 148.352 213.832 146.372 218.6C144.191 223.854 145.395 229.819 148.045 234.468Z" fill="#FFB8B8"/>
<path d="M206.499 214.223C206.048 215.452 205.39 216.563 204.565 217.49C203.74 218.417 202.765 219.141 201.697 219.62C200.369 220.243 198.905 220.348 197.522 219.919C196.836 219.696 196.204 219.292 195.673 218.737C195.143 218.182 194.729 217.492 194.464 216.72C194.252 215.942 194.136 215.133 194.119 214.317C193.921 210.743 193.997 207.061 195.107 203.723C195.536 202.436 196.113 201.215 196.451 199.892C196.783 198.363 196.953 196.792 196.956 195.215L197.321 185.465C197.382 184.757 197.34 184.042 197.197 183.351C196.834 181.94 195.706 181.023 194.671 180.182C192.173 178.15 189.704 175.779 188.493 172.514C188.077 171.531 187.928 170.422 188.066 169.337C188.408 167.401 190.079 166.148 191.73 165.726C192.811 165.449 193.928 165.432 195.014 165.674C196.101 165.916 197.134 166.413 198.052 167.134C198.97 167.856 199.754 168.787 200.356 169.872C200.958 170.957 201.365 172.174 201.555 173.448C201.718 174.549 201.716 175.673 201.811 176.784C202.014 179.141 202.654 181.413 203.055 183.735C204.041 189.456 203.53 195.369 204.505 201.088C205.32 205.87 208.394 208.991 206.499 214.223Z" fill="#FFB8B8"/>
<path d="M18.3899 273.857L17.691 273.841C17.9613 264.755 18.7904 255.703 20.1717 246.755C23.1936 227.599 28.2184 215.019 35.1067 209.363L35.508 210.032C19.4169 223.244 18.3981 273.352 18.3899 273.857Z" fill="#2F2E41"/>
<path d="M27.1251 273.661L26.4263 273.645C26.4413 272.74 26.8781 251.411 34.0584 245.516L34.4597 246.185C27.569 251.842 27.1285 273.444 27.1251 273.661Z" fill="#2F2E41"/>
<path d="M39.4835 210.106C41.4132 210.106 42.9776 208.276 42.9776 206.02C42.9776 203.763 41.4132 201.934 39.4835 201.934C37.5537 201.934 35.9894 203.763 35.9894 206.02C35.9894 208.276 37.5537 210.106 39.4835 210.106Z" fill="#6C63FF"/>
<path d="M37.7532 245.246C39.6829 245.246 41.2473 243.417 41.2473 241.16C41.2473 238.903 39.6829 237.074 37.7532 237.074C35.8234 237.074 34.259 238.903 34.259 241.16C34.259 243.417 35.8234 245.246 37.7532 245.246Z" fill="#6C63FF"/>
<path d="M25.4965 212.555C26.1532 217.46 24.4416 221.847 24.4416 221.847C24.4416 221.847 21.6655 218.282 21.0088 213.377C20.3521 208.472 22.0636 204.085 22.0636 204.085C22.0636 204.085 24.8398 207.65 25.4965 212.555Z" fill="#2F2E41"/>
<path d="M36.9178 224.468C32.902 226.079 28.9097 224.872 28.9097 224.872C28.9097 224.872 31.4282 221.054 35.444 219.443C39.4597 217.832 43.4521 219.039 43.4521 219.039C43.4521 219.039 40.9335 222.857 36.9178 224.468Z" fill="#2F2E41"/>
<path d="M37.0467 255.588C35.2292 256.256 33.2937 256.353 31.4337 255.871C32.6147 254.113 34.2052 252.792 36.0137 252.066C37.8222 251.341 39.7715 251.242 41.6268 251.783C40.4113 253.498 38.832 254.81 37.0467 255.588Z" fill="#2F2E41"/>
</g>
<defs>
<clipPath id="clip0">
<rect width="356.4" height="300" fill="white"/>
</clipPath>
</defs>
</svg>
